<svg viewBox="0 0 496 512" xmlns="http://www.w3.org/2000/svg" fill="white">
                    <path d="M165.9 397.4c0 2-2.3 3.6-5.2 
                3.6-5.8 0-13.2-5.1-20.3-15.4-4.7-6.9-8.1-14.5
                -10.2-22.6-1.6-6.1-6-19.8-10.4-24.3-1.9-2
                -3.3-3.2-4.8-3.2-4.5 0-5.4 5.9-2.2 
                15.2 2.4 6.7 6.8 16.6 9.3 22.5 5.3 
                11.9 14.6 27.4 32.6 27.4 3.4 0 
                6.4-.4 9.1-1.1 3.4-.8 5.2-2 
                5.2-3.6zM248 8C111 8 0 119.1 
                0 256c0 109.8 71.3 203 170.3 
                236.2 12.5 2.3 17.1-5.4 
                17.1-12v-43.4c-69.2 15-83.8-33.4
                -83.8-33.4-11.4-29-27.8-36.7-27.8
                -36.7-22.7-15.5 1.7-15.2 1.7-15.2 
                25.1 1.8 38.3 25.8 38.3 25.8 
                22.3 38.2 58.4 27.2 72.6 20.8 
                2.3-16.2 8.7-27.2 15.9-33.4
                -55.2-6.3-113.3-27.6-113.3-122.7 
                0-27.1 9.7-49.3 25.6-66.6
                -2.6-6.3-11.1-31.6 2.5-65.8 
                0 0 20.9-6.7 68.5 25.4a238.5 
                238.5 0 0 1 124.6 0c47.6-32 
                68.5-25.4 68.5-25.4 13.6 
                34.2 5.2 59.5 2.5 65.8 
                15.9 17.3 25.6 39.5 25.6 
                66.6 0 95.3-58.3 116.3-113.7 
                122.5 8.9 7.7 16.9 22.9 
                16.9 46.2v68.4c0 6.7 4.5 
                14.4 17.2 12C424.7 459.1 
                496 365.8 496 256 496 119.1 385 8 248 8z" />
                </svg>