<svg viewBox="0 0 448 512" xmlns="http://www.w3.org/2000/svg" fill="white">
                    <path d="M100.28 448H7.4V149.05h92.88zM53.79 
                108.1C24.09 108.1 0 83 0 53.4S24.09-1.3 53.79-1.3s53.79 
                24.09 53.79 53.79-24.09 53.8-53.79 
                53.8zM447.8 448h-92.4V302.4c0-34.7-12.4-58.4-43.4-58.4
                -23.7 0-37.8 15.9-44 31.2-2.3 
                5.6-2.8 13.4-2.8 21.3V448h-92.4s1.2-271.6 
                0-299.95h92.4v42.5c-.2.3-.5.7-.7 
                1h.7v-1c12.3-19 34.4-46.2 83.7-46.2 
                61.1 0 106.8 39.9 106.8 125.5V448z" />
                </svg>